<?xml version="1.0" encoding="UTF-8" standalone="no"?> <!-- Created with Vectornator for iOS (http://vectornator.io/) --><!DOCTYPE svg PUBLIC "-//W3C//DTD SVG 1.1//EN" "http://www.w3.org/Graphics/SVG/1.1/DTD/svg11.dtd">
<svg height="100%" style="fill-rule:evenodd;clip-rule:evenodd;stroke-linecap:round;stroke-linejoin:round;" xmlns:xlink="http://www.w3.org/1999/xlink" xmlns="http://www.w3.org/2000/svg" xml:space="preserve" width="100%" xmlns:vectornator="http://vectornator.io" version="1.1" viewBox="0 0 1024 1024">
<metadata>
<vectornator:setting key="DimensionsVisible" value="1"/>
<vectornator:setting key="PencilOnly" value="0"/>
<vectornator:setting key="SnapToPoints" value="0"/>
<vectornator:setting key="OutlineMode" value="0"/>
<vectornator:setting key="CMYKEnabledKey" value="0"/>
<vectornator:setting key="RulersVisible" value="1"/>
<vectornator:setting key="SnapToEdges" value="0"/>
<vectornator:setting key="GuidesVisible" value="1"/>
<vectornator:setting key="DisplayWhiteBackground" value="0"/>
<vectornator:setting key="doHistoryDisabled" value="0"/>
<vectornator:setting key="SnapToGuides" value="1"/>
<vectornator:setting key="TimeLapseWatermarkDisabled" value="0"/>
<vectornator:setting key="Units" value="Pixels"/>
<vectornator:setting key="DynamicGuides" value="0"/>
<vectornator:setting key="IsolateActiveLayer" value="0"/>
<vectornator:setting key="SnapToGrid" value="0"/>
</metadata>
<defs/>
<g id="Layer 1" vectornator:layerName="Layer 1">
<g opacity="1">
<path stroke="#000000" stroke-opacity="0.997475" stroke-width="12" d="M56.1639+565.426L123.114+565.426C147.164+565.426+166.66+584.644+166.66+608.35L166.66+968.733C166.66+992.439+147.164+1011.66+123.114+1011.66L56.1639+1011.66C32.1144+1011.66+12.6185+992.439+12.6185+968.733L12.6185+608.35C12.6185+584.644+32.1144+565.426+56.1639+565.426Z" fill="#ffbd00" stroke-linecap="round" opacity="1" stroke-linejoin="round"/>
<path stroke="#000000" stroke-opacity="0.997475" stroke-width="12" d="M251.178+408.006L312.469+408.006C336.519+408.006+356.015+427.223+356.015+450.93L356.015+968.733C356.015+992.439+336.519+1011.66+312.469+1011.66L251.178+1011.66C227.128+1011.66+207.632+992.439+207.632+968.733L207.632+450.93C207.632+427.223+227.128+408.006+251.178+408.006Z" fill="#ffbd00" stroke-linecap="round" opacity="1" stroke-linejoin="round"/>
<path stroke="#000000" stroke-opacity="0.997475" stroke-width="12" d="M443.677+700.535L504.34+700.535C528.389+700.535+547.885+719.752+547.885+743.458L547.885+968.733C547.885+992.439+528.389+1011.66+504.34+1011.66L443.677+1011.66C419.627+1011.66+400.131+992.439+400.131+968.733L400.131+743.458C400.131+719.752+419.627+700.535+443.677+700.535Z" fill="#ffbd00" stroke-linecap="round" opacity="1" stroke-linejoin="round"/>
<path stroke="#000000" stroke-opacity="0.997475" stroke-width="12" d="M632.089+575.342L700.297+575.342C724.346+575.342+743.842+594.56+743.842+618.266L743.842+968.733C743.842+992.439+724.346+1011.66+700.297+1011.66L632.089+1011.66C608.039+1011.66+588.543+992.439+588.543+968.733L588.543+618.266C588.543+594.56+608.039+575.342+632.089+575.342Z" fill="#ffbd00" stroke-linecap="round" opacity="1" stroke-linejoin="round"/>
</g>
<g opacity="1">
<path stroke="#000000" stroke-opacity="0.997475" stroke-width="12" d="M696+235.864L992.514+490.975C1006.71+503.355+1014.19+516.182+1015.01+529.459C1015.83+542.735+1010.25+555.396+998.239+567.417L952.642+612.101C940.629+624.122+927.827+629.622+914.267+628.636C900.707+627.649+887.737+620.24+875.36+606.425L615.723+314.963L696+235.864Z" fill="#0067e5" stroke-linecap="round" opacity="1" stroke-linejoin="round"/>
<path stroke="#000000" stroke-opacity="0.997475" stroke-width="12" d="M659.466+12.7944C670.296+12.458+681.12+12.8749+691.95+14.0411C713.609+16.3735+734.348+21.8744+754.188+30.5761C774.028+39.2777+791.787+51.2499+807.44+66.5003C813.993+72.9592+817.048+79.5136+816.593+86.1519C816.138+92.7903+813.79+98.4486+809.603+103.113C806.327+106.163+802.321+108.362+797.588+109.708C792.856+111.053+788.142+111.012+783.41+109.576C756.836+101.682+731.973+97.5756+708.857+97.3065C685.741+97.0374+664.262+102.737+644.422+114.399L665.457+168.761C670.007+180.244+671.244+190.216+669.151+198.649C667.058+207.081+662.269+215.063+654.806+222.598L593.933+282.603C588.29+287.986+582.339+291.528+576.06+293.233C569.78+294.937+562.18+294.979+553.261+293.364L509.295+284.506L489.092+304.683L492.088+336.178C492.452+342.099+492.04+347.11+490.856+351.236C489.673+355.363+486.365+359.926+480.905+364.95L461.235+384.077C455.411+389.459+449.333+392.314+442.963+392.672C436.592+393.031+430.566+390.426+424.924+384.864L342.749+304.42C337.471+299.217+335.03+293.318+335.394+286.77C335.758+280.221+338.738+274.272+344.38+268.89L364.05+249.238C369.51+244.035+374.224+240.816+378.228+239.56C382.233+238.304+387.148+237.856+392.972+238.215L424.924+241.988L445.392+221.778L436.107+183.853C433.74+174.523+434.397+164.999+438.037+155.31C441.677+145.622+448.495+135.848+458.506+125.98L513.389+72.4384C528.496+57.5469+545.801+45.3343+565.276+35.8253C584.752+26.3162+605.289+19.7204+626.949+16.0423C637.779+14.2033+648.636+13.1308+659.466+12.7944Z" fill="#0067e5" stroke-linecap="round" opacity="1" stroke-linejoin="round"/>
</g>
<path stroke="#000000" stroke-opacity="0.997475" stroke-width="12" d="M288.547+603.817C283.451+604.257+278.451+606.298+274.369+610.084L79.9986+790.328C70.426+799.205+69.9615+814.06+78.9669+823.496C87.9723+832.932+103.01+833.39+112.582+824.513L285.984+663.724L459.919+934.222C467.503+946.018+483.795+948.71+494.866+939.996L694.994+782.454C705.264+774.37+706.956+759.606+698.755+749.483C690.553+739.359+675.575+737.724+665.306+745.808L485.913+887.012L310.78+614.611C305.78+606.834+297.041+603.085+288.547+603.817Z" fill="#0067e5" stroke-linecap="round" opacity="1" stroke-linejoin="round"/>
</g>
<g id="Layer 2" vectornator:layerName="Layer 2" visibility="hidden">
<g opacity="1">
<path d="M282.529+994.798C282.529+1002.83+285.364+1009.57+291.036+1015C296.708+1020.44+303.325+1023.16+310.888+1023.16L993.285+1023.16C1001.08+1023.16+1007.82+1020.44+1013.49+1015C1019.16+1009.57+1022+1002.83+1022+994.798C1022+986.999+1019.16+980.323+1013.49+974.769C1007.82+969.216+1001.08+966.439+993.285+966.439L310.888+966.439C303.325+966.439+296.708+969.216+291.036+974.769C285.364+980.323+282.529+986.999+282.529+994.798ZM310.888+885.614C310.888+894.831+313.665+902.039+319.218+907.238C324.772+912.438+332.394+915.037+342.083+915.037L419.363+915.037C428.816+915.037+436.319+912.438+441.873+907.238C447.426+902.039+450.203+894.831+450.203+885.614L450.203+592.449C450.203+583.233+447.426+575.966+441.873+570.648C436.319+565.331+428.816+562.672+419.363+562.672L342.083+562.672C332.394+562.672+324.772+565.331+319.218+570.648C313.665+575.966+310.888+583.233+310.888+592.449L310.888+885.614ZM491.679+885.614C491.679+894.831+494.456+902.039+500.009+907.238C505.563+912.438+513.185+915.037+522.874+915.037L600.154+915.037C609.607+915.037+617.169+912.438+622.841+907.238C628.513+902.039+631.349+894.831+631.349+885.614L631.349+438.954C631.349+429.737+628.513+422.529+622.841+417.33C617.169+412.131+609.607+409.531+600.154+409.531L522.874+409.531C513.185+409.531+505.563+412.131+500.009+417.33C494.456+422.529+491.679+429.737+491.679+438.954L491.679+885.614ZM672.824+885.614C672.824+894.831+675.601+902.039+681.155+907.238C686.709+912.438+694.212+915.037+703.665+915.037L781.299+915.037C790.752+915.037+798.256+912.438+803.809+907.238C809.363+902.039+812.14+894.831+812.14+885.614L812.14+515.525C812.14+506.071+809.363+498.745+803.809+493.546C798.256+488.347+790.752+485.747+781.299+485.747L703.665+485.747C694.212+485.747+686.709+488.347+681.155+493.546C675.601+498.745+672.824+506.071+672.824+515.525L672.824+885.614ZM853.615+885.614C853.615+894.831+856.392+902.039+861.946+907.238C867.5+912.438+875.121+915.037+884.811+915.037L962.09+915.037C971.543+915.037+979.106+912.438+984.778+907.238C990.449+902.039+993.285+894.831+993.285+885.614L993.285+666.893C993.285+657.676+990.449+650.409+984.778+645.091C979.106+639.774+971.543+637.115+962.09+637.115L884.811+637.115C875.121+637.115+867.5+639.774+861.946+645.091C856.392+650.409+853.615+657.676+853.615+666.893L853.615+885.614Z" opacity="1" fill="#000000"/>
</g>
</g>
</svg>
