<?xml version="1.0" encoding="UTF-8" standalone="no"?> <!-- Created with Vectornator for iOS (http://vectornator.io/) --><!DOCTYPE svg PUBLIC "-//W3C//DTD SVG 1.1//EN" "http://www.w3.org/Graphics/SVG/1.1/DTD/svg11.dtd">
<svg height="100%" style="fill-rule:nonzero;clip-rule:evenodd;stroke-linecap:round;stroke-linejoin:round;" xmlns:xlink="http://www.w3.org/1999/xlink" xmlns="http://www.w3.org/2000/svg" xml:space="preserve" width="100%" xmlns:vectornator="http://vectornator.io" version="1.1" viewBox="0 0 512 512">
<metadata>
<vectornator:setting key="DimensionsVisible" value="1"/>
<vectornator:setting key="PencilOnly" value="0"/>
<vectornator:setting key="SnapToPoints" value="0"/>
<vectornator:setting key="OutlineMode" value="0"/>
<vectornator:setting key="CMYKEnabledKey" value="0"/>
<vectornator:setting key="RulersVisible" value="1"/>
<vectornator:setting key="SnapToEdges" value="0"/>
<vectornator:setting key="GuidesVisible" value="1"/>
<vectornator:setting key="DisplayWhiteBackground" value="0"/>
<vectornator:setting key="doHistoryDisabled" value="0"/>
<vectornator:setting key="SnapToGuides" value="1"/>
<vectornator:setting key="TimeLapseWatermarkDisabled" value="0"/>
<vectornator:setting key="Units" value="Pixels"/>
<vectornator:setting key="DynamicGuides" value="0"/>
<vectornator:setting key="IsolateActiveLayer" value="0"/>
<vectornator:setting key="SnapToGrid" value="1"/>
</metadata>
<defs/>
<g id="Layer 1" vectornator:layerName="Layer 1">
<path d="M16.6955+448L495.305+448C495.689+448+496+448.305+496+448.681L496+477.191C496+477.567+495.689+477.872+495.305+477.872L16.6955+477.872C16.3114+477.872+16+477.567+16+477.191L16+448.681C16+448.305+16.3114+448+16.6955+448Z" opacity="1" fill="#2c84fa"/>
<path d="M64+16.6955L64+495.304C64+495.689+63.6734+496+63.2705+496L32.7295+496C32.3266+496+32+495.689+32+495.304L32+16.6955C32+16.3114+32.3266+16+32.7295+16L63.2705+16C63.6734+16+64+16.3114+64+16.6955Z" opacity="1" fill="#2c84fa"/>
<path d="M120+288L120+288C133.255+288+144+298.745+144+312L144+312C144+325.255+133.255+336+120+336L120+336C106.745+336+96+325.255+96+312L96+312C96+298.745+106.745+288+120+288Z" opacity="1" fill="#2c84fa"/>
<path d="M184+208L184+208C197.255+208+208+218.745+208+232L208+232C208+245.255+197.255+256+184+256L184+256C170.745+256+160+245.255+160+232L160+232C160+218.745+170.745+208+184+208Z" opacity="1" fill="#2c84fa"/>
<path d="M248+288L248+288C261.255+288+272+298.745+272+312L272+312C272+325.255+261.255+336+248+336L248+336C234.745+336+224+325.255+224+312L224+312C224+298.745+234.745+288+248+288Z" opacity="1" fill="#2c84fa"/>
<path d="M312+368L312+368C325.255+368+336+378.745+336+392L336+392C336+405.255+325.255+416+312+416L312+416C298.745+416+288+405.255+288+392L288+392C288+378.745+298.745+368+312+368Z" opacity="1" fill="#2c84fa"/>
<g opacity="1">
<path d="M356.704+239.262L394.302+239.262L394.302+225.297C394.302+217.706+395.34+211.118+397.417+205.532C399.494+199.946+403.074+194.718+408.159+189.848C413.244+184.978+420.298+179.894+429.321+174.594C443.071+166.287+453.992+156.082+462.085+143.979C470.177+131.876+474.224+117.446+474.224+100.688L474.224+100.473C474.224+85.5772+470.392+72.2927+462.729+60.6195C455.067+48.9463+444.396+39.708+430.718+32.9047C417.039+26.1013+401.177+22.6996+383.13+22.6996C363.078+22.6996+346.32+26.3519+332.856+33.6566C319.393+40.9613+309.116+50.7367+302.026+62.9828C294.936+75.2289+290.819+88.6566+289.673+103.266L289.458+106.059L326.196+106.059L326.411+103.911C327.414+94.3142+330.207+85.9711+334.79+78.8812C339.373+71.7914+345.64+66.2413+353.589+62.2308C361.538+58.2204+370.884+56.2152+381.626+56.2152C392.225+56.2152+401.463+58.1846+409.341+62.1234C417.218+66.0622+423.341+71.5049+427.71+78.4515C432.078+85.3982+434.263+93.3832+434.263+102.407L434.263+102.621C434.263+110.213+433.117+116.944+430.825+122.817C428.533+128.689+424.845+134.096+419.761+139.037C414.676+143.979+407.98+149.028+399.673+154.184C389.933+160.056+381.877+166.215+375.503+172.661C369.129+179.106+364.403+186.16+361.323+193.823C358.244+201.485+356.704+210.043+356.704+219.496L356.704+239.262ZM375.61+337.231C382.629+337.231+388.465+334.868+393.12+330.141C397.775+325.414+400.102+319.614+400.102+312.739C400.102+305.72+397.775+299.884+393.12+295.229C388.465+290.574+382.629+288.246+375.61+288.246C368.735+288.246+362.935+290.574+358.208+295.229C353.481+299.884+351.118+305.72+351.118+312.739C351.118+319.614+353.481+325.414+358.208+330.141C362.935+334.868+368.735+337.231+375.61+337.231Z" opacity="1" fill="#2c84fa"/>
</g>
</g>
</svg>
